<?xml version="1.0" standalone="no"?>
<!DOCTYPE svg PUBLIC "-//W3C//DTD SVG 20010904//EN"
 "http://www.w3.org/TR/2001/REC-SVG-20010904/DTD/svg10.dtd">
<svg version="1.0" xmlns="http://www.w3.org/2000/svg"
 width="361.000000pt" height="278.000000pt" viewBox="0 0 361.000000 278.000000"
 preserveAspectRatio="xMidYMid meet">

<g transform="translate(0.000000,278.000000) scale(0.100000,-0.100000)"
fill="#000000" stroke="none">
<path d="M12 2720 c0 -19 2 -27 5 -17 2 9 2 25 0 35 -3 9 -5 1 -5 -18z"/>
<path d="M3581 2704 c0 -11 3 -14 6 -6 3 7 2 16 -1 19 -3 4 -6 -2 -5 -13z"/>
<path d="M110 2642 c0 -16 42 -107 53 -114 6 -3 17 -2 26 4 11 6 28 6 51 0 31
-9 32 -10 10 -12 -29 -2 81 -29 120 -29 20 -1 22 1 10 10 -17 12 71 8 105 -5
11 -4 8 0 -7 9 -28 15 -37 35 -18 35 6 0 10 -4 10 -9 0 -4 15 -13 33 -18 20
-6 31 -15 29 -24 -2 -8 0 -10 5 -6 4 5 9 13 9 18 1 5 2 14 3 19 0 6 6 10 12
10 7 0 9 -10 5 -24 -3 -14 -2 -28 4 -31 5 -3 10 -2 10 4 0 6 9 15 20 21 16 9
22 6 34 -19 l15 -29 128 -7 c71 -4 153 -11 183 -16 40 -6 25 -7 -58 -3 -105 5
-113 4 -110 -13 2 -11 17 -20 43 -26 54 -11 82 -32 66 -51 -16 -19 5 -26 75
-26 36 0 53 -4 49 -10 -4 -6 -1 -18 7 -27 11 -15 10 -16 -9 -11 -16 4 -23 2
-23 -8 0 -8 -6 -14 -12 -13 -32 4 -37 -1 -31 -38 3 -21 11 -41 18 -45 7 -5 9
-22 6 -50 -5 -39 -10 -45 -50 -64 -25 -11 -40 -23 -35 -27 6 -3 30 5 54 19 23
13 44 23 45 22 2 -2 5 -14 7 -28 3 -23 0 -25 -34 -22 -23 2 -38 -1 -38 -7 0
-6 8 -12 18 -13 15 -1 -202 -17 -290 -20 -24 -1 -42 4 -50 14 -9 11 -38 18
-103 22 -49 4 -84 3 -78 -2 8 -5 16 -42 19 -86 l7 -77 176 2 c97 1 219 2 272
1 l96 -2 7 -40 c3 -22 11 -40 17 -40 6 0 3 -7 -5 -16 -12 -11 -16 -35 -15 -92
1 -102 9 -126 39 -130 14 -2 29 -7 33 -12 13 -12 -98 -23 -153 -15 -80 11 -84
-8 -5 -21 l70 -11 -52 -2 c-46 -1 -53 -4 -53 -21 0 -11 5 -20 10 -20 7 0 10
-240 10 -699 0 -385 4 -702 8 -705 5 -3 56 -8 114 -12 l106 -7 6 49 c3 27 5
416 4 864 l-3 814 -25 7 c-24 7 -24 7 -2 8 22 1 27 18 23 78 -1 11 2 24 8 27
5 4 123 6 261 6 162 0 249 4 245 10 -3 6 -2 10 4 10 5 0 13 -4 16 -10 3 -5 34
-10 68 -10 67 0 64 14 -5 25 -21 4 -35 11 -32 16 3 6 0 16 -6 24 -10 12 -10
15 1 15 18 0 49 -20 32 -20 -7 0 -13 -4 -13 -10 0 -5 10 -10 23 -10 32 0 98
-20 93 -28 -2 -4 10 -8 27 -9 30 -2 31 -1 13 12 -11 8 -17 18 -13 21 3 3 18
-3 34 -15 26 -22 34 -22 288 -20 l262 2 48 -29 c27 -15 43 -30 36 -32 -6 -2
-18 2 -27 8 -8 7 -18 10 -22 6 -9 -10 -16 -1626 -7 -1723 l7 -71 38 -4 c22 -2
73 -2 115 0 l75 4 0 704 c0 463 3 704 10 704 6 0 10 9 10 20 0 17 -7 20 -57
22 -44 1 -48 2 -18 5 22 2 56 6 75 9 68 12 0 23 -102 17 -103 -6 -130 5 -63
27 l35 12 2 66 c1 37 2 85 3 107 1 22 2 61 3 88 l2 47 275 0 275 0 0 71 c0 56
4 75 18 86 15 12 10 13 -38 8 -108 -11 -326 -25 -387 -25 -57 0 -63 2 -63 21
0 11 5 17 10 14 6 -3 10 -2 10 4 0 5 -17 18 -37 28 -34 16 -38 22 -41 62 -2
24 2 49 7 54 6 6 11 21 11 34 0 28 2 28 270 43 113 7 212 16 220 21 8 4 11 9
6 9 -5 0 -1 9 10 21 10 11 23 35 29 52 5 17 21 37 35 44 14 7 25 18 25 25 0 7
11 14 25 16 24 3 25 3 5 -12 -18 -14 -18 -15 -2 -16 16 0 37 35 37 61 0 10
-52 12 -127 3 -37 -5 -53 -11 -53 -21 0 -11 -5 -13 -17 -7 -21 9 -57 10 -173
1 -178 -14 -280 -17 -280 -7 0 6 20 10 44 10 26 0 46 5 49 13 4 9 8 9 15 -2 7
-10 25 -12 73 -7 134 14 159 18 153 27 -3 5 -1 9 5 9 5 0 11 -5 13 -10 2 -7
51 -4 143 9 137 20 296 48 300 53 1 2 12 29 24 61 19 54 20 58 4 53 -176 -54
-497 -100 -641 -92 -88 4 -108 16 -29 16 31 0 59 5 62 10 6 9 -112 17 -140 10
-5 -2 -22 -5 -38 -8 -33 -5 -43 -18 -27 -37 9 -10 5 -15 -18 -20 -17 -3 -52
-5 -79 -4 -27 1 -54 -1 -60 -4 -6 -4 -23 -3 -38 3 -20 7 -31 7 -41 -1 -14 -11
-68 -8 -109 6 -16 6 -17 5 -5 -4 18 -13 -51 -15 -138 -4 -58 7 -53 22 8 23 29
1 32 2 17 11 -13 7 -27 7 -49 0 -44 -16 -61 -14 -54 5 4 10 2 14 -6 11 -7 -2
-12 -10 -10 -16 1 -6 -11 -11 -29 -11 -16 0 -28 -4 -25 -9 14 -21 -285 -43
-352 -25 -21 6 -21 7 -5 20 11 8 13 13 6 14 -7 0 -22 -9 -32 -19 -17 -17 -34
-20 -117 -20 -53 0 -102 3 -107 6 -6 4 -60 5 -119 4 -111 -3 -287 8 -573 35
-217 20 -235 23 -228 40 4 10 -3 14 -22 14 -15 0 -24 -4 -20 -10 8 -13 8 -13
-105 5 -81 13 -133 25 -222 51 -10 3 -18 1 -18 -4z m2667 -98 c-3 -3 -12 -4
-19 -1 -8 3 -5 6 6 6 11 1 17 -2 13 -5z m-676 -27 c-1 -12 -15 -9 -19 4 -3 6
1 10 8 8 6 -3 11 -8 11 -12z m99 -103 c0 -3 -5 -14 -10 -25 -13 -23 -37 -25
-42 -2 -3 15 -4 15 -16 0 -12 -14 -10 -19 12 -38 33 -29 33 -42 1 -27 -14 6
-25 15 -25 20 0 4 -25 8 -55 8 -30 0 -55 -4 -55 -10 0 -5 5 -10 11 -10 8 0 8
-5 -1 -15 -16 -19 -54 -20 -47 -1 4 10 -7 17 -34 24 -38 10 -41 9 -50 -15 -10
-28 -11 -28 -131 19 -56 22 -85 28 -107 23 -17 -4 -29 -11 -25 -16 3 -5 -1 -9
-9 -9 -8 0 -17 -13 -20 -29 -3 -15 -18 -42 -32 -60 l-27 -31 80 0 81 0 -9 32
c-5 17 -19 42 -32 55 -12 12 -16 23 -10 23 15 0 59 -59 67 -92 l7 -27 136 4
c76 2 215 4 310 4 113 1 171 4 167 11 -4 6 7 10 24 10 17 0 31 -4 31 -10 0 -5
6 -10 13 -10 15 0 37 -67 37 -114 0 -30 -5 -38 -40 -57 -53 -30 -44 -36 15
-10 39 17 47 18 52 6 12 -32 -5 -46 -43 -39 -33 6 -36 5 -30 -11 8 -23 -13
-52 -25 -33 -6 10 -17 3 -42 -23 -29 -31 -42 -37 -78 -37 -24 -1 -59 -6 -76
-11 -18 -5 -33 -6 -33 -2 0 8 77 41 96 41 6 0 21 11 34 25 l23 25 -30 0 c-17
0 -34 -6 -37 -12 -5 -10 -7 -10 -12 0 -4 8 -29 12 -72 12 l-67 0 -2 -30 c-1
-17 -7 -38 -13 -48 -10 -15 -10 -15 -9 3 5 69 -11 75 -221 75 -135 0 -170 -3
-170 -13 0 -8 -12 -19 -27 -26 -20 -9 -23 -15 -15 -23 7 -7 12 -19 12 -27 0
-10 -8 -7 -27 11 -16 14 -43 29 -61 33 -18 4 -38 15 -45 26 -10 16 -24 19 -99
19 -63 0 -88 -4 -89 -12 0 -10 -2 -10 -6 0 -3 7 -23 12 -49 12 -32 0 -44 4
-44 15 0 8 8 15 17 15 13 0 14 3 6 11 -22 22 -42 -13 -37 -61 5 -39 4 -42 -10
-31 -9 8 -16 20 -16 28 0 7 -10 18 -22 23 -13 5 -17 9 -10 9 7 1 10 5 7 11 -3
5 -19 7 -34 4 -31 -6 -53 12 -27 22 9 3 13 10 10 16 -3 5 3 12 15 15 12 3 21
12 21 20 0 8 4 11 10 8 18 -11 24 46 6 63 -15 15 -18 15 -26 2 -7 -12 -11 -10
-18 10 -9 23 -7 25 27 28 20 2 40 10 44 18 6 11 38 14 155 14 125 0 153 3 182
19 25 13 35 26 37 45 1 14 -2 26 -7 26 -4 0 -6 10 -3 21 4 15 0 27 -13 36 -17
12 4 14 156 13 217 -2 211 -2 175 15 -40 18 -10 18 42 0 24 -8 80 -15 125 -16
73 -1 84 1 98 20 10 13 26 20 48 21 17 0 32 -3 32 -6z"/>
<path d="M1795 2340 c3 -5 15 -10 26 -10 10 0 19 5 19 10 0 6 -12 10 -26 10
-14 0 -23 -4 -19 -10z"/>
<path d="M1510 1971 c0 -13 64 -31 71 -20 3 6 22 15 40 19 27 6 18 8 -38 7
-40 0 -73 -3 -73 -6z"/>
<path d="M548 2633 c7 -3 16 -2 19 1 4 3 -2 6 -13 5 -11 0 -14 -3 -6 -6z"/>
<path d="M3038 2633 c7 -3 16 -2 19 1 4 3 -2 6 -13 5 -11 0 -14 -3 -6 -6z"/>
<path d="M728 2613 c7 -3 16 -2 19 1 4 3 -2 6 -13 5 -11 0 -14 -3 -6 -6z"/>
<path d="M838 2603 c7 -3 16 -2 19 1 4 3 -2 6 -13 5 -11 0 -14 -3 -6 -6z"/>
<path d="M2628 2593 c7 -3 16 -2 19 1 4 3 -2 6 -13 5 -11 0 -14 -3 -6 -6z"/>
<path d="M1138 2583 c7 -3 16 -2 19 1 4 3 -2 6 -13 5 -11 0 -14 -3 -6 -6z"/>
<path d="M2458 2583 c7 -3 16 -2 19 1 4 3 -2 6 -13 5 -11 0 -14 -3 -6 -6z"/>
<path d="M1383 2573 c15 -2 37 -2 50 0 12 2 0 4 -28 4 -27 0 -38 -2 -22 -4z"/>
<path d="M2163 2573 c15 -2 39 -2 55 0 15 2 2 4 -28 4 -30 0 -43 -2 -27 -4z"/>
<path d="M965 2559 c-4 -6 -5 -13 -2 -15 7 -8 57 7 57 17 0 13 -47 11 -55 -2z"/>
<path d="M1770 2564 c0 -13 18 -39 24 -34 2 3 -2 14 -10 24 -8 11 -14 16 -14
10z"/>
<path d="M1944 2548 c-3 -4 11 -8 30 -8 20 0 36 2 36 4 0 8 -61 12 -66 4z"/>
<path d="M425 2490 c3 -5 14 -10 23 -10 15 0 15 2 2 10 -20 13 -33 13 -25 0z"/>
<path d="M295 2480 c-2 -4 1 -21 8 -39 11 -29 50 -51 94 -51 7 0 17 -9 23 -19
12 -24 47 -17 55 10 8 23 21 25 29 3 10 -26 7 -33 -24 -61 -16 -14 -30 -31
-30 -37 0 -21 56 -35 172 -42 116 -7 118 -6 137 17 14 17 16 28 9 37 -8 9 1
12 40 12 28 0 54 5 57 10 3 6 1 10 -5 10 -6 0 -9 4 -6 9 3 5 -2 12 -11 16 -10
3 -19 1 -21 -4 -6 -18 -32 -12 -32 7 -1 9 -12 30 -25 46 -21 27 -31 30 -90 34
-36 2 -71 0 -78 -5 -24 -19 -176 1 -219 29 -27 18 -77 28 -83 18z"/>
<path d="M446 2334 c-9 -24 -7 -28 9 -14 17 14 20 30 6 30 -5 0 -12 -7 -15
-16z"/>
<path d="M648 1979 c21 -6 39 -6 50 0 13 8 5 10 -33 10 -48 -1 -49 -1 -17 -10z"/>
<path d="M1575 1660 c-15 -25 13 -30 157 -30 l151 0 -19 -22 -19 -23 23 19
c12 11 22 23 22 28 0 4 -70 8 -155 8 -138 0 -182 7 -142 23 9 4 9 6 0 6 -6 1
-15 -3 -18 -9z"/>
<path d="M1914 1608 l-29 -33 33 29 c30 28 37 36 29 36 -2 0 -16 -15 -33 -32z"/>
<path d="M1723 1555 c0 -22 2 -30 4 -17 2 12 2 30 0 40 -3 9 -5 -1 -4 -23z"/>
<path d="M1762 1540 c0 -14 2 -19 5 -12 2 6 2 18 0 25 -3 6 -5 1 -5 -13z"/>
<path d="M1684 1468 l-19 -23 23 19 c21 18 27 26 19 26 -2 0 -12 -10 -23 -22z"/>
<path d="M1613 1420 c2 -8 14 -16 28 -17 19 -1 20 -1 4 4 -11 3 -24 10 -28 17
-6 7 -7 6 -4 -4z"/>
<path d="M1598 1003 c7 -3 16 -2 19 1 4 3 -2 6 -13 5 -11 0 -14 -3 -6 -6z"/>
<path d="M1751 794 c0 -11 3 -14 6 -6 3 7 2 16 -1 19 -3 4 -6 -2 -5 -13z"/>
<path d="M1870 783 c14 -3 29 -10 33 -17 6 -7 7 -6 4 4 -2 8 -16 16 -33 17
-25 1 -26 0 -4 -4z"/>
<path d="M1788 773 c6 -2 18 -2 25 0 6 3 1 5 -13 5 -14 0 -19 -2 -12 -5z"/>
<path d="M1698 763 c7 -3 16 -2 19 1 4 3 -2 6 -13 5 -11 0 -14 -3 -6 -6z"/>
<path d="M1587 753 c-4 -3 -7 -11 -7 -17 0 -7 3 -7 8 0 4 7 16 14 27 17 19 5
19 5 -1 6 -11 0 -24 -2 -27 -6z"/>
<path d="M1848 753 c6 -2 18 -2 25 0 6 3 1 5 -13 5 -14 0 -19 -2 -12 -5z"/>
<path d="M1778 743 c7 -3 16 -2 19 1 4 3 -2 6 -13 5 -11 0 -14 -3 -6 -6z"/>
<path d="M1930 691 c13 -10 13 -12 0 -22 -13 -9 -13 -10 0 -6 8 2 15 10 15 17
0 7 -7 15 -15 17 -13 4 -13 3 0 -6z"/>
<path d="M1848 683 c6 -2 18 -2 25 0 6 3 1 5 -13 5 -14 0 -19 -2 -12 -5z"/>
<path d="M1593 653 c9 -2 23 -2 30 0 6 3 -1 5 -18 5 -16 0 -22 -2 -12 -5z"/>
<path d="M1588 628 c5 -5 16 -8 23 -6 8 3 3 7 -10 11 -17 4 -21 3 -13 -5z"/>
<path d="M1668 633 c6 -2 18 -2 25 0 6 3 1 5 -13 5 -14 0 -19 -2 -12 -5z"/>
<path d="M1773 560 c2 -8 12 -16 23 -17 13 -2 15 -1 4 4 -8 3 -19 11 -23 17
-6 7 -7 6 -4 -4z"/>
<path d="M1600 371 c0 -6 4 -13 10 -16 6 -3 7 1 4 9 -7 18 -14 21 -14 7z"/>
<path d="M1879 283 l-24 -28 28 24 c15 14 27 26 27 28 0 8 -8 1 -31 -24z"/>
<path d="M1909 263 l-24 -28 28 24 c15 14 27 26 27 28 0 8 -8 1 -31 -24z"/>
</g>
</svg>
