<?xml version="1.0" encoding="UTF-8"?>
<svg version="1.1" xmlns="http://www.w3.org/2000/svg" width="512" height="512">
<path d="M0 0 C168.96 0 337.92 0 512 0 C512 168.96 512 337.92 512 512 C343.04 512 174.08 512 0 512 C0 343.04 0 174.08 0 0 Z " fill="#8700E4" transform="translate(0,0)"/>
<path d="M0 0 C0.8146875 0.1453418 1.629375 0.29068359 2.46875 0.44042969 C23.53337012 4.27523153 44.81469109 10.20336222 63.0234375 21.75048828 C65.19564794 23.12368159 67.39291231 24.45055563 69.59375 25.77734375 C90.51859423 38.53080721 109.58104322 53.02063627 124 73 C124.64710938 73.89203125 125.29421875 74.7840625 125.9609375 75.703125 C133.88752371 87.39573634 139.58807442 101.3343402 143 115 C143.33644531 116.33224609 143.33644531 116.33224609 143.6796875 117.69140625 C148.4030475 140.43470817 144.74173953 164.90262515 132.0625 184.4375 C123.33615746 196.83192127 123.33615746 196.83192127 119 199 C112.38246131 199.52520148 107.7099439 198.47379291 101.578125 195.97265625 C86.67272695 190.34925608 69.92072887 194.86494818 56.00537109 201.11083984 C44.81964188 206.31766722 34.4793001 212.90457667 24.08740234 219.51098633 C17.53180463 223.67838935 10.9228593 227.73516867 4.23242188 231.68212891 C2.57858383 232.65844319 0.92650916 233.6377459 -0.72460938 234.61865234 C-25.36787436 249.24705603 -25.36787436 249.24705603 -38 255 C-38.61601074 255.28311035 -39.23202148 255.5662207 -39.86669922 255.85791016 C-54.94878957 262.672084 -71.70949174 266.80744357 -88 262 C-94.46157384 259.50391098 -99.15514117 256.82930209 -103 251 C-103.8125 249.125 -103.8125 249.125 -104 247 C-104.12375 245.865625 -104.2475 244.73125 -104.375 243.5625 C-104.01790389 227.46341687 -90.98757998 213.70614969 -80.53515625 202.68359375 C-78.37535171 200.39732915 -76.29733539 198.07376787 -74.25 195.6875 C-69.29485638 189.99085033 -63.93968258 184.8653191 -58.22265625 179.94140625 C-55.67023117 177.71195939 -53.18112486 175.41998618 -50.6875 173.125 C-45.28467162 168.20456701 -39.70662635 163.56222887 -34 159 C-33.01128906 158.19304687 -32.02257812 157.38609375 -31.00390625 156.5546875 C-21.75540449 149.07798906 -12.01584636 142.34127673 -2.22265625 135.6015625 C-1.32264893 134.97870361 -0.4226416 134.35584473 0.50463867 133.71411133 C2.03604776 132.6621572 3.57611 131.62250764 5.13012695 130.60424805 C12.00809741 126.00112443 16.24758738 118.06109804 18 110 C18.78685963 103.45922931 17.92857217 98.36585467 14 93 C6.05887246 84.26979636 -4.23267528 78.84884414 -15.125 74.6875 C-15.75736572 74.44499512 -16.38973145 74.20249023 -17.04125977 73.95263672 C-28.67598835 69.73077726 -40.13337729 69.55689813 -52.375 69.5625 C-53.27117035 69.56209717 -54.1673407 69.56169434 -55.09066772 69.5612793 C-68.32198199 69.59563827 -80.53872088 70.16301908 -93 75 C-94.20124512 75.45004395 -94.20124512 75.45004395 -95.42675781 75.90917969 C-132.509186 90.01459343 -162.64162931 114.7249142 -179.20263672 151.19287109 C-183.42903094 160.24419554 -183.42903094 160.24419554 -184 170 C-183.01 170.99 -183.01 170.99 -182 172 C-173.20156866 171.12460801 -164.67298172 164.83395421 -157.05810547 160.6418457 C-115.59887199 137.8318626 -115.59887199 137.8318626 -100.328125 141.671875 C-97.86999976 142.4079238 -95.43072593 143.17834617 -93 144 C-91.94965746 147.52614995 -91.41614712 149.7030809 -92.953125 153.1171875 C-96.3258976 158.32460014 -100.43966939 162.84478867 -104.63671875 167.39453125 C-108.61211255 171.77732078 -112.29562779 176.38829537 -116 181 C-116.60714844 181.72703125 -117.21429688 182.4540625 -117.83984375 183.203125 C-131.93444751 200.46182348 -140.54127322 222.53676263 -139 245 C-137.16871402 262.87438289 -127.58341932 277.54926799 -113.8359375 288.765625 C-85.54778121 309.76887147 -48.53104956 314.05266158 -14.375 310.25 C3.18768602 307.56655482 19.37068105 302.14624957 35.66845703 295.16357422 C50.83427871 288.70143522 67.26566043 284.80489668 83.49609375 289.95703125 C90.3202676 292.79954984 95.50040537 296.43826006 99 303 C101.16116787 309.48350361 101.05952085 317.40784701 98.4375 323.75 C87.81660775 343.99260648 66.27376065 353.13541899 46 361 C45.19256348 361.31356445 44.38512695 361.62712891 43.55322266 361.95019531 C26.30465416 368.54310422 8.37748525 373.02934697 -10 375 C-11.01320313 375.11085938 -12.02640625 375.22171875 -13.0703125 375.3359375 C-51.59985339 378.90885232 -92.04012797 371.83752532 -126 353 C-126.63776367 352.64679688 -127.27552734 352.29359375 -127.93261719 351.9296875 C-140.31851073 344.97708093 -151.29462474 336.71063611 -161.73828125 327.07421875 C-163.78324667 325.19878414 -165.87619475 323.40967467 -168 321.625 C-192.98102035 299.69166413 -213.21760198 265.07955617 -221 233 C-221.16951172 232.30567871 -221.33902344 231.61135742 -221.51367188 230.89599609 C-231.30028262 189.19456158 -225.4088357 141.06629868 -206 103 C-205.6807959 102.37013184 -205.3615918 101.74026367 -205.03271484 101.09130859 C-194.32347381 80.28040557 -179.26353667 60.74012871 -161 46 C-159.96158048 45.11535642 -158.92389185 44.22985458 -157.88671875 43.34375 C-130.3682389 20.20528219 -96.25627278 6.0267133 -61 0 C-59.8553125 -0.20625 -58.710625 -0.4125 -57.53125 -0.625 C-38.88127762 -3.49422652 -18.5495587 -3.51290985 0 0 Z " fill="#FEFEFE" transform="translate(296,64)"/>
</svg>
